<svg xmlns="http://www.w3.org/2000/svg" width="1240" height="1240"><path d="M588.37 212c0 5.775.165 8.137.367 5.25.202-2.887.202-7.613 0-10.5-.202-2.887-.367-.525-.367 5.25m5.254-5.461c-.343.893-.585 2.375-.538 3.293.047.917.482.341.967-1.282.943-3.156.609-4.718-.429-2.011M601 220.031c0 .533.675.969 1.5.969s1.5-.177 1.5-.393c0-.216-.675-.652-1.5-.969-.825-.316-1.5-.139-1.5.393m5.638 3.469c.317.825 1.033 1.5 1.591 1.5.586 0 .489-.635-.229-1.5-.685-.825-1.401-1.5-1.591-1.5-.19 0-.087.675.229 1.5M572 233.441c0 1.957.174 3.559.387 3.559.821 0 1.234-6.116.446-6.603-.458-.283-.833 1.087-.833 3.044m44.022-.024c.553.557 1.811.513 3.195-.111 2.125-.957 2.062-1.02-.913-.917-1.935.067-2.835.473-2.282 1.028M577 236.893c0 .491.739 1.176 1.641 1.523 1.373.527 1.435.38.378-.893-1.44-1.735-2.019-1.916-2.019-.63m143.75-.231c.688.278 1.813.278 2.5 0 .688-.277.125-.504-1.25-.504s-1.937.227-1.25.504m8 0c.688.278 1.813.278 2.5 0 .688-.277.125-.504-1.25-.504s-1.937.227-1.25.504m6.5.027c.962.252 2.538.252 3.5 0 .962-.251.175-.457-1.75-.457s-2.712.206-1.75.457m10.019.004c.973.254 2.323.237 3-.037.677-.274-.119-.481-1.769-.461-1.65.02-2.204.244-1.231.498M594 237.941c0 .518.445 1.216.989 1.552.566.35.734-.051.393-.941-.665-1.732-1.382-2.049-1.382-.611m107.813-.258c.721.289 1.584.253 1.916-.079.332-.332-.258-.568-1.312-.525-1.165.048-1.402.285-.604.604m8 0c.721.289 1.584.253 1.916-.079.332-.332-.258-.568-1.312-.525-1.165.048-1.402.285-.604.604m46.451.035c1.52.229 3.77.223 5-.014 1.23-.237-.014-.425-2.764-.418-2.75.008-3.756.202-2.236.432m-64.451.965c.721.289 1.584.253 1.916-.079.332-.332-.258-.568-1.312-.525-1.165.048-1.402.285-.604.604m78.937-.021c.688.278 1.813.278 2.5 0 .688-.277.125-.504-1.25-.504s-1.937.227-1.25.504m9.063 2.021c.721.289 1.584.253 1.916-.079.332-.332-.258-.568-1.312-.525-1.165.048-1.402.285-.604.604m-198.793 1.793c-.789.95-.865 1.524-.201 1.524 1.208 0 2.617-1.897 1.924-2.591-.252-.251-1.027.229-1.723 1.067m68.73-.814c.688.278 1.813.278 2.5 0 .688-.277.125-.504-1.25-.504s-1.937.227-1.25.504m137.063.021c.721.289 1.584.253 1.916-.079.332-.332-.258-.568-1.312-.525-1.165.048-1.402.285-.604.604m-124.051 1.024c1.244.239 3.044.23 4-.02s-.062-.446-2.262-.435c-2.2.011-2.982.216-1.738.455m10.507-.014c.973.254 2.323.237 3-.037.677-.274-.119-.481-1.769-.461-1.65.02-2.204.244-1.231.498m118.481-.031c.688.278 1.813.278 2.5 0 .688-.277.125-.504-1.25-.504s-1.937.227-1.25.504m-218.671 3.466c.043 1.854.336 2.697.65 1.872s.975-1.765 1.468-2.088c.494-.324.201-1.166-.65-1.873-1.346-1.117-1.537-.845-1.468 2.089m71.734-2.445c.721.289 1.584.253 1.916-.079.332-.332-.258-.568-1.312-.525-1.165.048-1.402.285-.604.604m43 0c.721.289 1.584.253 1.916-.079.332-.332-.258-.568-1.312-.525-1.165.048-1.402.285-.604.604m-103.543 2.248c.08 1.062.482 1.722.894 1.468.412-.255.495-1.124.185-1.931-.781-2.036-1.252-1.834-1.079.463M808 247c.825.533 1.95.969 2.5.969s.325-.436-.5-.969c-.825-.533-1.95-.969-2.5-.969s-.325.436.5.969m-207.971 1.961c-.809.512-1.258 1.143-.998 1.403.259.26 1.345-.166 2.412-.946 2.133-1.56.94-1.946-1.414-.457m-25.95 2.622c.048 1.165.285 1.402.604.605.289-.722.253-1.585-.079-1.917-.332-.332-.568.258-.525 1.312m29.652 1.337c-.435 1.663-.305 2.054.437 1.312.582-.582.86-1.647.62-2.369-.25-.749-.703-.295-1.057 1.057M824 252c-.901.582-1.025.975-.309.985.655.008 1.469-.435 1.809-.985.767-1.242.421-1.242-1.5 0m-236 1c0 .55.477 1 1.059 1s.781-.45.441-1-.816-1-1.059-1-.441.45-.441 1m9.644 2.516c.472 1.23 4.381 2.793 5.125 2.049.195-.196-.989-1.027-2.631-1.847-2.257-1.125-2.867-1.175-2.494-.202M577 259.059c0 .582.45.781 1 .441s1-.816 1-1.059-.45-.441-1-.441-1 .477-1 1.059M844 259c.825.533 1.95.969 2.5.969s.325-.436-.5-.969c-.825-.533-1.95-.969-2.5-.969s-.325.436.5.969m4 2.393c0 .216.698.661 1.552.989.89.341 1.291.173.941-.393-.587-.951-2.493-1.406-2.493-.596m-1.187 2.29c.721.289 1.584.253 1.916-.079.332-.332-.258-.568-1.312-.525-1.165.048-1.402.285-.604.604m6.284.7c-.887 1.069-.79 1.521.429 1.989.998.382 1.328.2.898-.495-.374-.605-.06-1.493.698-1.973.797-.505.902-.88.25-.889-.62-.008-1.644.607-2.275 1.368m9.636 3.741c.679.684 1.486.991 1.793.683.308-.308-.247-.867-1.233-1.243-1.425-.542-1.54-.428-.56.56M865.5 271c-.34.55-.141 1 .441 1s1.059-.45 1.059-1-.198-1-.441-1-.719.45-1.059 1m-281.993 7.989c-.35.566.051.734.941.393 1.732-.665 2.049-1.382.611-1.382-.518 0-1.216.445-1.552.989m300.226 5.135c.679.684 1.486.991 1.793.683.308-.308-.247-.867-1.233-1.243-1.425-.542-1.54-.428-.56.56m4.517.538c-1.43.577-1.699 2.338-.357 2.338.491 0 1.152-.675 1.469-1.5.316-.825.477-1.464.357-1.421-.121.043-.781.306-1.469.583M571.5 288c-.34.55-.168 1 .382 1s1.278-.45 1.618-1c.34-.55.168-1-.382-1s-1.278.45-1.618 1m322.007.989c-.35.566.051.734.941.393 1.732-.665 2.049-1.382.611-1.382-.518 0-1.216.445-1.552.989M568 291c0 .55.45 1 1 1s1-.45 1-1-.45-1-1-1-1 .45-1 1m331 .902c0 1.038 1.902 2.541 2.466 1.948.183-.192-.297-.93-1.067-1.639-.769-.71-1.399-.849-1.399-.309m-335.817 2.315c-.65.651-1.183 1.575-1.183 2.054 0 .48.729.143 1.619-.747.891-.891 1.423-1.815 1.183-2.055-.239-.24-.968.097-1.619.748m4.317.783c-.34.55-.141 1 .441 1s1.059-.45 1.059-1-.198-1-.441-1-.719.45-1.059 1m328.5 0c.825.533 1.95.969 2.5.969s.325-.436-.5-.969c-.825-.533-1.95-.969-2.5-.969s-.325.436.5.969m9.595 2.698c1.152 1.029 2.307 2.509 2.567 3.287.326.979.686 1.069 1.167.292.402-.65-.68-2.036-2.567-3.287-2.332-1.547-2.665-1.63-1.167-.292m-353.671 6.938c-2.23 2.424-2.253 2.547-.292 1.527 1.173-.609 2.397-1.795 2.719-2.635.818-2.132.362-1.924-2.427 1.108m-4.845 8.947c.048 1.165.285 1.402.604.605.289-.722.253-1.585-.079-1.917-.332-.332-.568.258-.525 1.312M539 319.941c0 .518.445 1.216.989 1.552.566.35.734-.051.393-.941-.665-1.732-1.382-2.049-1.382-.611m390 .941c0 .55.45 1.278 1 1.618.55.34 1 .168 1-.382s-.45-1.278-1-1.618c-.55-.34-1-.168-1 .382M537 323c0 .55.477 1 1.059 1s.781-.45.441-1-.816-1-1.059-1-.441.45-.441 1m4.5 2c-.34.55-.141 1 .441 1s1.059-.45 1.059-1-.198-1-.441-1-.719.45-1.059 1m-9.936 6.707c-.542 1.425-.428 1.54.56.56.684-.679.991-1.486.683-1.793-.308-.308-.867.247-1.243 1.233m308.249-.024c.721.289 1.584.253 1.916-.079.332-.332-.258-.568-1.312-.525-1.165.048-1.402.285-.604.604m-21.146 1.392c-2.109.51-4.796 1.603-5.973 2.427-2.604 1.824-4.067 1.941-3.093.248.418-.726.338-.901-.191-.417-.5.459-.91 1.321-.91 1.917 0 1.893-2.327 1.941-2.788.058-.243-.995-.3-.624-.126.823.235 1.958-.112 2.597-1.361 2.5-.922-.072-1.688.432-1.701 1.119-.013.688-1.261 2.801-2.774 4.697-1.513 1.895-2.75 3.947-2.75 4.559 0 .611-.48.815-1.067.453-.587-.363-.965-.052-.84.691.125.742-.295 2.619-.934 4.17-1.978 4.797-3.389 16.676-2.681 22.566.931 7.744 2.583 14.114 3.66 14.114.495 0 .63 1.076.3 2.391s-.119 2.688.47 3.052c.669.413.862-.014.517-1.141-.304-.991.171-.554 1.056.972.884 1.525 1.293 3.282.909 3.904-.424.687-.252.855.44.427.643-.397 2.681.84 4.687 2.846 1.953 1.952 3.058 3.549 2.457 3.549-.6 0-.809.457-.464 1.016.346.559 1.16.718 1.809.354.796-.447.774-.225-.069.683-2.016 2.172-1.433 3.423.696 1.496 1.863-1.686 2.071-1.673 4.852.307 1.598 1.138 4.998 2.538 7.556 3.111 5.102 1.144 20.125.978 18.29-.202-.678-.435-.227-.741 1.106-.75 1.237-.008 2.25-.391 2.25-.851 0-.461 2.485-2.094 5.521-3.631 3.037-1.536 5.823-3.297 6.192-3.913.369-.616-.198-.445-1.261.38-1.062.825-.63-.075.96-2 1.59-1.925 3.611-3.401 4.49-3.279.94.13 1.083-.008.348-.333-1.368-.607-1.738-3.388-.45-3.388.44 0 1.295.495 1.901 1.101.801.801 1.288.508 1.791-1.076.38-1.197.425-2.442.099-2.767-.325-.325-.591.159-.591 1.075 0 .917-.45 1.667-1 1.667-1.244 0-1.243-.003.131-3.947.625-1.793 1.43-2.763 1.799-2.167.366.593.737-.601.824-2.654.086-2.052.45-7.721.809-12.597.394-5.355.25-9.711-.363-11-.558-1.174-1.575-4.309-2.26-6.966-.685-2.658-1.925-5.511-2.755-6.341-1.29-1.29-1.304-1.64-.097-2.403 1.381-.875 1.205-1.046-1.338-1.3-.687-.069-1.25-.681-1.25-1.36 0-1.332-8.723-8.912-12-10.426-3.688-1.705-6.492-3.514-6.088-3.928.837-.861-15.092-.722-18.745.164m120.897.218c.376.986.935 1.541 1.243 1.233.308-.307.001-1.114-.683-1.793-.988-.98-1.102-.865-.56.56M525.1 336.295c-1.265 2.107-1.243 2.128.479.479.991-.95 1.587-1.942 1.324-2.205-.263-.263-1.074.514-1.803 1.726m4.4-1.295c-.34.55-.141 1 .441 1s1.059-.45 1.059-1-.198-1-.441-1-.719.45-1.059 1m408 0c-.34.55-.141 1 .441 1s1.059-.45 1.059-1-.198-1-.441-1-.719.45-1.059 1M795 338.5c-.718.865-.815 1.5-.229 1.5.558 0 1.274-.675 1.591-1.5.316-.825.419-1.5.229-1.5-.19 0-.906.675-1.591 1.5m-270 1.44c0 .8-.651 1.026-1.75.608-1.403-.534-1.502-.417-.5.593.962.969 1.522.987 2.433.076.651-.651.876-1.491.5-1.867-.375-.376-.683-.11-.683.59m325 .453c0 .216.698.661 1.552.989.89.341 1.291.173.941-.393-.587-.951-2.493-1.406-2.493-.596m94.811 4.774c.229 1.558.702 2.833 1.052 2.833.351 0 .637-1.275.637-2.833 0-1.559-.474-2.834-1.052-2.834-.587 0-.869 1.254-.637 2.834M797 343.941c0 .518.45 1.219 1 1.559.55.34 1-.084 1-.941s-.45-1.559-1-1.559-1 .423-1 .941m-2.128 4.809c-1.243 1.586-1.208 1.621.378.378.962-.755 1.75-1.543 1.75-1.75 0-.823-.821-.294-2.128 1.372M517 350c0 .55.702 1 1.559 1s1.281-.45.941-1c-.34-.55-1.041-1-1.559-1s-.941.45-.941 1m432 .559c0 .857.457 1.276 1.016.931.559-.346.758-1.047.441-1.559-.857-1.387-1.457-1.129-1.457.628m-120.077 2.364c-2.342 2.342-2.923 3.795-2.923 7.309 0 6.377 4.414 10.768 10.823 10.768 5.055 0 10.177-5.433 10.177-10.794 0-6.064-4.252-10.206-10.478-10.206-3.835 0-5.202.526-7.599 2.923m32.641 1.784c-.542 1.425-.428 1.54.56.56.684-.679.991-1.486.683-1.793-.308-.308-.867.247-1.243 1.233m-70.485 4.876c.048 1.165.285 1.402.604.605.289-.722.253-1.585-.079-1.917-.332-.332-.568.258-.525 1.312M863.5 362c.34.55.816 1 1.059 1s.441-.45.441-1-.477-1-1.059-1-.781.45-.441 1m-73.9 3.6c-.356.927-.422 1.911-.147 2.186.275.275.791-.259 1.147-1.186.356-.927.422-1.911.147-2.186-.275-.275-.791.259-1.147 1.186m-284.521 9.983c.048 1.165.285 1.402.604.605.289-.722.253-1.585-.079-1.917-.332-.332-.568.258-.525 1.312M789.158 378c0 1.375.227 1.938.504 1.25.278-.687.278-1.812 0-2.5-.277-.687-.504-.125-.504 1.25m174.234 3.579c.762 1.985-.33 6.577-1.405 5.913-.44-.272-.583.339-.316 1.358.266 1.018-.121 2.481-.861 3.251-.74.769-2.149 3.199-3.131 5.399-1.992 4.46-10.185 14.132-11.659 13.762-.521-.131-.691.432-.377 1.25.402 1.048-.101 1.488-1.703 1.488-1.25 0-2.001.272-1.668.605 1.16 1.16-4.534 5.446-6.435 4.843-1.041-.33-1.837-.094-1.837.544 0 .619.563.835 1.25.48 4.063-2.099-4.896 4.087-10.476 7.235-7.197 4.058-9.774 7.546-9.774 13.226 0 4.637 2.55 9.905 5.431 11.217 2.357 1.075 2.413 1.253.802 2.558-1.545 1.25-1.482 1.28.581.278 1.944-.945 2.825-.738 5.5 1.289 1.752 1.328 3.72 2.596 4.373 2.819 3.728 1.274 20.313 17.901 20.313 20.364 0 .298-.788.549-1.75.557-1.47.013-1.514.165-.276.948.938.593 1.706.555 2.113-.104.537-.869 4.913 4.821 4.913 6.387 0 .28.76 2.252 1.689 4.382s1.717 4.172 1.75 4.539c.034.366.398 1.004.811 1.416.413.413.75 1.589.75 2.615 0 3.375 2.889 3.156 7.687-.582 2.553-1.989 5.242-3.616 5.977-3.616.735 0 1.336-.413 1.336-.918 0-1.043 1.444-1.844 21.197-11.766 7.867-3.951 15.54-7.488 17.053-7.859 1.513-.37 2.75-.99 2.75-1.376 0-.387 2.162-1.257 4.805-1.934 2.642-.678 6.073-1.89 7.623-2.694 1.55-.804 5.575-2.175 8.945-3.047 3.37-.872 6.577-1.94 7.127-2.375.55-.434 3.7-1.557 7-2.496 8.28-2.354 17.556-6.901 20.521-10.059 1.979-2.107 2.464-3.637 2.406-7.578-.063-4.214-.574-5.455-3.485-8.458-1.877-1.936-4.431-3.776-5.677-4.088-1.246-.313-2.265-.898-2.265-1.3 0-.403-1.912-1.325-4.25-2.05-2.338-.725-5.15-1.851-6.25-2.502-1.1-.651-4.7-2.014-8-3.029-3.3-1.016-6.225-2.107-6.5-2.425-.275-.319-3.627-1.634-7.45-2.922-3.822-1.288-10.122-3.993-14-6.011-3.877-2.018-8.963-4.29-11.3-5.051-2.337-.76-4.25-1.739-4.25-2.175 0-.436-1.913-1.704-4.25-2.817-5.443-2.591-10.925-5.779-11.669-6.785-.32-.432-2.381-1.683-4.581-2.78-2.2-1.097-4.588-2.785-5.307-3.75-.718-.965-1.86-1.755-2.537-1.755-.678 0-2.79-1.332-4.694-2.959-3.814-3.26-7.582-4.098-6.57-1.462m-460.754.921c-.316.825-.139 1.5.393 1.5.533 0 .969-.675.969-1.5s-.177-1.5-.393-1.5c-.216 0-.652.675-.969 1.5M499 394.941c0 .518.445 1.216.989 1.552.566.35.734-.051.393-.941-.665-1.732-1.382-2.049-1.382-.611M799.5 404c-.34.55-.141 1 .441 1s1.059-.45 1.059-1-.198-1-.441-1-.719.45-1.059 1m62.064.293c.376.986.935 1.541 1.243 1.233.308-.307.001-1.114-.683-1.793-.988-.98-1.102-.865-.56.56m-14.999 7.602c-.305.493.096 1.145.89 1.449.963.37 1.258.072.887-.895-.645-1.68-1.011-1.794-1.777-.554M849.5 416c.34.55.816 1 1.059 1s.441-.45.441-1-.477-1-1.059-1-.781.45-.441 1m-354.421 3.583c.048 1.165.285 1.402.604.605.289-.722.253-1.585-.079-1.917-.332-.332-.568.258-.525 1.312M925 424c0 .55.45 1 1 1s1-.45 1-1-.45-1-1-1-1 .45-1 1m-8.5 5c-.34.55-.141 1 .441 1s1.059-.45 1.059-1-.198-1-.441-1-.719.45-1.059 1m-2.876 19.539c-.965 2.514-.681 3.163.498 1.136.584-1.004.851-2.036.593-2.293-.257-.258-.749.263-1.091 1.157M495.195 452.5c.02 1.65.244 2.204.498 1.231.254-.973.237-2.323-.037-3-.274-.677-.481.119-.461 1.769m1.472 8.167c-.367.366-.667 1.131-.667 1.7 0 .626.466.567 1.183-.15.651-.651.951-1.416.667-1.7-.284-.284-.817-.217-1.183.15M929 464c0 .55.477 1 1.059 1s.781-.45.441-1-.816-1-1.059-1-.441.45-.441 1m6.441.532c1.068.807 2.391 1.468 2.941 1.468.55 0 .127-.661-.941-1.468-1.067-.808-2.391-1.468-2.941-1.468-.55 0-.126.66.941 1.468M498.195 468.5c.02 1.65.244 2.204.498 1.231.254-.973.237-2.323-.037-3-.274-.677-.481.119-.461 1.769m2.941 15.059c-.075 1.132.525 2.932 1.332 4 .808 1.067 1.483 1.415 1.5.773.018-.643.341-1.993.719-3 .593-1.581.467-1.653-.923-.524-1.384 1.125-1.672.985-2.051-1-.389-2.037-.457-2.066-.577-.249m454.502 6.941c-.316.825-.139 1.5.393 1.5.533 0 .969-.675.969-1.5s-.177-1.5-.393-1.5c-.216 0-.652.675-.969 1.5m-449.559 8.083c.048 1.165.285 1.402.604.605.289-.722.253-1.585-.079-1.917-.332-.332-.568.258-.525 1.312m454.545 8.956c-.965 2.514-.681 3.163.498 1.136.584-1.004.851-2.036.593-2.293-.257-.258-.749.263-1.091 1.157M512.71 511c-.287 1.1-.115 2 .384 2 .498 0 .906-.9.906-2s-.173-2-.383-2c-.211 0-.619.9-.907 2m442.854 5.293c.376.986.935 1.541 1.243 1.233.308-.307.001-1.114-.683-1.793-.988-.98-1.102-.865-.56.56M518 518c0 .55.45 1 1 1s1-.45 1-1-.45-1-1-1-1 .45-1 1m432.98 8.524c-.696.838-1.071 1.718-.835 1.955.237.236.98-.449 1.651-1.524 1.452-2.325.968-2.58-.816-.431m-429.949.976c0 .55.436 1.675.969 2.5.533.825.969 1.05.969.5s-.436-1.675-.969-2.5c-.533-.825-.969-1.05-.969-.5M944 530.882c0 .55.45 1.278 1 1.618.55.34 1 .168 1-.382s-.45-1.278-1-1.618c-.55-.34-1-.168-1 .382m-418 5.059c0 .518.445 1.216.989 1.552.566.35.734-.051.393-.941-.665-1.732-1.382-2.049-1.382-.611m5.667.726c-.367.366-.667 1.131-.667 1.7 0 .626.466.567 1.183-.15.651-.651.951-1.416.667-1.7-.284-.285-.817-.217-1.183.15m412.792.4c-.363.586-.445 1.281-.183 1.543s.743-.218 1.069-1.067c.676-1.762.1-2.072-.886-.476m-744.718 14.111c.683.828.908 1.863.5 2.299-.407.437.271.267 1.509-.377s2.25-1.455 2.25-1.802-.284-.347-.631 0c-.348.347-1.585.124-2.75-.497-1.835-.977-1.953-.927-.878.377m323.813 7.734c-.31.502.101.815.912.696 2.142-.314 3.155-1.608 1.26-1.608-.885 0-1.862.41-2.172.912m5.956.104c.346.559 1.047.758 1.559.441 1.387-.857 1.129-1.457-.628-1.457-.857 0-1.276.457-.931 1.016M211.5 561c-.34.55-.141 1 .441 1s1.059-.45 1.059-1-.198-1-.441-1-.719.45-1.059 1m-15.936 2.707c-.542 1.425-.428 1.54.56.56.684-.679.991-1.486.683-1.793-.308-.308-.867.247-1.243 1.233m325.994-.8c-.309.498.34.671 1.441.383 2.335-.611 2.63-1.29.56-1.29-.793 0-1.693.408-2.001.907m-330.975.959c-.431.697-.513 1.537-.183 1.867.895.895 1.871-.421 1.387-1.871-.338-1.016-.574-1.016-1.204.004m37.15 2.258c.679.684 1.486.991 1.793.683.308-.308-.247-.867-1.233-1.243-1.425-.542-1.54-.428-.56.56m4 2c.679.684 1.486.991 1.793.683.308-.308-.247-.867-1.233-1.243-1.425-.542-1.54-.428-.56.56m681.831 1.169c.376.986.935 1.541 1.243 1.233.308-.307.001-1.114-.683-1.793-.988-.98-1.102-.865-.56.56m-727.485 3.29c.048 1.165.285 1.402.604.605.289-.722.253-1.585-.079-1.917-.332-.332-.568.258-.525 1.312m56.921.336c.825.578 2.287 1.057 3.25 1.066.963.008 1.75.465 1.75 1.015 0 .55.45 1 1 1 1.915 0 .984-1.87-1.25-2.512-5.449-1.566-6.324-1.671-4.75-.569m259 .05c0 .532.675.709 1.5.393.825-.317 1.5-.753 1.5-.969 0-.216-.675-.393-1.5-.393s-1.5.436-1.5.969m405.543 2.962c-.683 1.105.894 2.299 1.818 1.375.95-.951.773-2.306-.302-2.306-.518 0-1.2.419-1.516.931M259 579c.825.533 2.175.945 3 .914.989-.036.819-.347-.5-.914-2.749-1.181-4.328-1.181-2.5 0m645.5 0c.34.55.816 1 1.059 1s.441-.45.441-1-.477-1-1.059-1-.781.45-.441 1m-723.421 2.583c.048 1.165.285 1.402.604.605.289-.722.253-1.585-.079-1.917-.332-.332-.568.258-.525 1.312m90.671 2.079c.688.278 1.813.278 2.5 0 .688-.277.125-.504-1.25-.504s-1.937.227-1.25.504m194 0c.688.278 1.813.278 2.5 0 .688-.277.125-.504-1.25-.504s-1.937.227-1.25.504m437.25-.213c0 .382.675 1.369 1.5 2.194s1.5 1.073 1.5.551c0-.522-.675-1.509-1.5-2.194s-1.5-.933-1.5-.551M276.5 585c.34.55 1.041 1 1.559 1s.941-.45.941-1-.702-1-1.559-1-1.281.45-.941 1m632 4c.34.55.816 1 1.059 1s.441-.45.441-1-.477-1-1.059-1-.781.45-.441 1m-613.911.856c-.291.47.583.643 1.941.383 1.359-.26 2.47-.645 2.47-.856 0-.773-3.899-.356-4.411.473M445.5 590c-.34.55.084 1 .941 1s1.559-.45 1.559-1-.423-1-.941-1-1.219.45-1.559 1m-6.687 1.683c.721.289 1.584.253 1.916-.079.332-.332-.258-.568-1.312-.525-1.165.048-1.402.285-.604.604m469.187.21c0 .491.739 1.176 1.641 1.523 1.373.527 1.435.38.378-.893-1.44-1.735-2.019-1.916-2.019-.63m4-.134c0 .418 1.013 1.382 2.25 2.142 2.242 1.377 2.243 1.375.345-.759-2.038-2.292-2.595-2.588-2.595-1.383m-735.921.909c-.043.643-.338 1.993-.655 3-.547 1.741-.518 1.744.571.044.631-.983.925-2.333.655-3-.355-.875-.514-.887-.571-.044m131.734.015c.721.289 1.584.253 1.916-.079.332-.332-.258-.568-1.312-.525-1.165.048-1.402.285-.604.604m4.437 1.006c.962.252 2.538.252 3.5 0 .962-.251.175-.457-1.75-.457s-2.712.206-1.75.457m113 0c.962.252 2.538.252 3.5 0 .962-.251.175-.457-1.75-.457s-2.712.206-1.75.457m-103.5.973c.688.278 1.813.278 2.5 0 .688-.277.125-.504-1.25-.504s-1.937.227-1.25.504m96.063.021c.721.289 1.584.253 1.916-.079.332-.332-.258-.568-1.312-.525-1.165.048-1.402.285-.604.604m-76.063 3.023c1.238.238 3.262.238 4.5 0 1.238-.239.225-.434-2.25-.434s-3.488.195-2.25.434m17.5 1.01c1.512.229 3.988.229 5.5 0s.275-.416-2.75-.416-4.262.187-2.75.416m561.209 1.351c-.363.586-.445 1.281-.183 1.543s.743-.218 1.069-1.067c.676-1.762.1-2.072-.886-.476m4.641 3.638c.729 1.212 1.54 1.989 1.803 1.726.263-.263-.333-1.255-1.324-2.205-1.722-1.649-1.744-1.628-.479.479m-754.433 4.962c-.367.366-.653 1.379-.637 2.25.025 1.3.221 1.257 1.092-.242 1.077-1.852.765-3.228-.455-2.008M928 612.059c0 .582.45.781 1 .441s1-.816 1-1.059-.45-.441-1-.441-1 .477-1 1.059m6 1.319c0 .207.788.995 1.75 1.75 1.586 1.243 1.621 1.208.378-.378-1.307-1.666-2.128-2.195-2.128-1.372m9.756 11.286c.691.279.959.988.596 1.576-.394.637-.188.777.51.345 1.377-.85.55-2.62-1.171-2.506-.852.056-.834.223.065.585m1.847 4.169c-.283.459.12.834.897.834s1.18-.375.897-.834c-.283-.458-.687-.833-.897-.833-.21 0-.614.375-.897.833M950 633c.589 1.1 1.295 2 1.57 2 .275 0 .019-.9-.57-2s-1.295-2-1.57-2c-.275 0-.019.9.57 2m-711.691 3.25c-.445.688-.757 10.025-.693 20.75.117 19.732.906 26.053 5.923 47.5.901 3.85 1.875 8.243 2.165 9.762.29 1.519.925 3.009 1.411 3.309.487.301.885 1.624.885 2.941 0 2.283.563 4.005 3.641 11.139.747 1.733 1.359 3.465 1.359 3.849 0 .384.735 2.341 1.633 4.349a651.201 651.201 0 013.345 7.651c2.757 6.438 3.915 8.797 6.047 12.317 1.106 1.825 1.748 3.741 1.429 4.257-.319.517.087 1.196.903 1.509.815.313 2.662 2.898 4.103 5.743 2.935 5.795 4.757 8.931 5.621 9.674.765.659 8.919 13.028 8.919 13.53 0 .214 1.688 2.184 3.75 4.378 2.063 2.194 4.2 4.577 4.75 5.295 3.903 5.101 12.629 14.649 18.673 20.432C325.211 837.11 326.194 838 326.945 838c.41 0 1.602.954 2.65 2.121 3.021 3.364 27.273 20.879 28.91 20.879.377 0 1.881.847 3.341 1.883 1.46 1.036 5.129 3.225 8.154 4.865a735.88 735.88 0 019.187 5.064c2.029 1.146 8.329 3.999 14 6.34 5.672 2.34 10.463 4.614 10.646 5.052.184.438 1.437.796 2.786.796 1.348 0 3.448.631 4.666 1.402 1.218.771 3.79 1.697 5.715 2.058 1.925.361 4.4 1.075 5.5 1.588 1.1.512 5.825 1.865 10.5 3.007 17.856 4.362 24.639 5.469 48.5 7.918 15.933 1.635 21.098 1.788 32 .948 19.582-1.51 39.395-3.943 45-5.526 2.75-.777 8.15-2.059 12-2.85 3.85-.792 13.271-3.488 20.935-5.992 7.665-2.504 14.307-4.553 14.761-4.553.454 0 2.733-.864 5.065-1.919 2.331-1.056 5.36-2.246 6.73-2.644 2.835-.825 13.093-5.323 20.509-8.994 2.75-1.361 5.546-2.467 6.213-2.459 1.312.017 19.972-9.976 27.906-14.945 2.685-1.681 5.669-3.33 6.631-3.665.962-.334 1.75-1.005 1.75-1.491 0-.485.689-.883 1.531-.883.843 0 1.791-.675 2.107-1.5.317-.825 1.003-1.5 1.524-1.5 1.056 0 11.861-7.171 13.982-9.279.746-.741 4.627-4.161 8.625-7.598 9.973-8.574 30.231-30.935 30.231-33.369 0-.488 1.095-2.323 2.433-4.077 3.235-4.242 11.13-19.544 13.703-26.561 7.731-21.081 10.554-42.473 8.815-66.796-.537-7.524-1.166-13.869-1.398-14.1-1.018-1.018-2.554 1.131-2.564 3.589-.009 2.353-4.112 15.732-8.032 26.191-2.175 5.804-7.351 15.25-12.804 23.368-2.834 4.219-5.153 7.852-5.153 8.074 0 .222-1.237 1.681-2.75 3.241-1.513 1.561-5.658 6.106-9.213 10.101-10.569 11.877-31.708 28.77-48.282 38.583-12.52 7.413-34.74 18.59-37.005 18.614-.962.011-1.75.469-1.75 1.019 0 .55-.562 1.003-1.25 1.006-.687.004-2.457.636-3.933 1.406-1.475.77-4.063 1.703-5.75 2.073-1.687.371-3.067.998-3.067 1.394 0 .954-6.082 3.121-8.762 3.121-1.166 0-2.395.444-2.73.987-.555.897-23.999 8.632-37.508 12.375-24.57 6.808-63.816 10.118-91.3 7.701-7.59-.667-14.79-1.385-16-1.594-1.21-.21-4.9-.829-8.2-1.378-8.422-1.398-20.534-3.982-23.5-5.012-1.375-.477-6.1-1.853-10.5-3.058-4.4-1.204-9.418-2.827-11.151-3.605-1.733-.779-3.781-1.416-4.55-1.416-.77 0-1.827-.428-2.35-.951-.523-.523-4.062-2.122-7.864-3.553-8.699-3.275-30.257-14.44-37.824-19.59-3.156-2.148-5.946-3.906-6.2-3.906-.88 0-9.279-5.955-10.539-7.473-.697-.84-1.78-1.527-2.408-1.527-.627 0-3.16-2.036-5.627-4.525-2.468-2.489-5.622-5.147-7.009-5.908-2.915-1.598-28.499-26.768-31.478-30.969-1.1-1.551-2.45-3.333-3-3.96-5.847-6.669-18.312-24.898-23.739-34.717a6705.437 6705.437 0 00-3.595-6.5c-.585-1.056-2.472-5.071-4.192-8.921-1.72-3.85-4.203-9.059-5.517-11.575-1.315-2.516-3.048-7.097-3.851-10.179-.803-3.082-1.883-6.423-2.401-7.425-.517-1.001-1.948-5.871-3.18-10.821-1.232-4.95-2.503-9.675-2.825-10.5-.801-2.051-.951-2.986-1.085-6.75-.119-3.352-2.217-4.455-3.806-2m-74.057 13.25c.011 2.2.216 2.982.455 1.738.239-1.244.23-3.044-.02-4s-.446.062-.435 2.262m0 8c.011 2.2.216 2.982.455 1.738.239-1.244.23-3.044-.02-4s-.446.062-.435 2.262m1 21c.011 2.2.216 2.982.455 1.738.239-1.244.23-3.044-.02-4s-.446.062-.435 2.262M978 689.274c0 .885.41 1.862.912 2.172.502.31.815-.101.696-.912-.314-2.142-1.608-3.155-1.608-1.26M170.252 717.5c.011 2.2.216 2.982.455 1.738.239-1.244.23-3.044-.02-4s-.446.062-.435 2.262m815.906 1.5c0 1.375.227 1.938.504 1.25.278-.687.278-1.812 0-2.5-.277-.687-.504-.125-.504 1.25m.552 11c.288 1.1.696 2 .907 2 .21 0 .383-.9.383-2s-.408-2-.906-2c-.499 0-.671.9-.384 2m-811.552 12c0 1.375.227 1.938.504 1.25.278-.687.278-1.812 0-2.5-.277-.687-.504-.125-.504 1.25m812.921.583c.048 1.165.285 1.402.604.605.289-.722.253-1.585-.079-1.917-.332-.332-.568.258-.525 1.312m.079 13.417c0 1.375.227 1.938.504 1.25.278-.687.278-1.812 0-2.5-.277-.687-.504-.125-.504 1.25m-808.088 1.691c.039.445.457 1.709.93 2.809.829 1.928.862 1.921.93-.191.038-1.205-.38-2.469-.93-2.809-.55-.34-.968-.254-.93.191m5.088 7.309c0 1.375.227 1.938.504 1.25.278-.687.278-1.812 0-2.5-.277-.687-.504-.125-.504 1.25m802 10c0 1.375.227 1.938.504 1.25.278-.687.278-1.812 0-2.5-.277-.687-.504-.125-.504 1.25m-802.017 0c0 .825.386 2.4.859 3.5.542 1.261.859 1.445.859.5 0-.825-.386-2.4-.859-3.5-.542-1.261-.859-1.445-.859-.5m800 9c0 .825.386 2.4.859 3.5.542 1.261.859 1.445.859.5 0-.825-.386-2.4-.859-3.5-.542-1.261-.859-1.445-.859-.5M190.6 787.6c-.356.927-.422 1.911-.147 2.186.275.275.791-.259 1.147-1.186.356-.927.422-1.911.147-2.186-.275-.275-.791.259-1.147 1.186m5.479 15.983c.048 1.165.285 1.402.604.605.289-.722.253-1.585-.079-1.917-.332-.332-.568.258-.525 1.312m5 3c.048 1.165.285 1.402.604.605.289-.722.253-1.585-.079-1.917-.332-.332-.568.258-.525 1.312m4.485 15.124c-.542 1.425-.428 1.54.56.56.684-.679.991-1.486.683-1.793-.308-.308-.867.247-1.243 1.233m771.515 5.876c.048 1.165.285 1.402.604.605.289-.722.253-1.585-.079-1.917-.332-.332-.568.258-.525 1.312m-767 3c.048 1.165.285 1.402.604.605.289-.722.253-1.585-.079-1.917-.332-.332-.568.258-.525 1.312m2.421.822c0 1.322.338 2.195.75 1.94.412-.254.75-1.336.75-2.404 0-1.068-.338-1.941-.75-1.941s-.75 1.082-.75 2.405m761.5 3.036c0 .857.45 1.559 1 1.559s1-.423 1-.941-.45-1.219-1-1.559c-.55-.34-1 .084-1 .941m-753 11.618c0 .582.45.781 1 .441s1-.816 1-1.059-.45-.441-1-.441-1 .477-1 1.059m4.667 9.608c-.367.366-.667 1.131-.667 1.7 0 .626.466.567 1.183-.15.651-.651.951-1.416.667-1.7-.284-.285-.817-.217-1.183.15M232 867.902c0 1.038 1.902 2.541 2.466 1.948.183-.192-.297-.93-1.067-1.639-.769-.71-1.399-.849-1.399-.309m4.606 6.25c1.042 1.459 2.094 2.459 2.338 2.222.245-.236-.607-1.43-1.894-2.652l-2.338-2.222 1.894 2.652m4.853 3.915c-.363.586-.445 1.281-.183 1.543s.743-.218 1.069-1.067c.676-1.762.1-2.072-.886-.476m709.243 6.6c.282.733.641 1.333.798 1.333.157 0 .516-.6.798-1.333.281-.734-.078-1.334-.798-1.334-.72 0-1.079.6-.798 1.334M246 886.941c0 .518.445 1.216.989 1.552.566.35.734-.051.393-.941-.665-1.732-1.382-2.049-1.382-.611M948.5 889c.34.55.816 1 1.059 1s.441-.45.441-1-.477-1-1.059-1-.781.45-.441 1M253 891.059c0 .582.45.781 1 .441s1-.816 1-1.059-.45-.441-1-.441-1 .477-1 1.059M944.5 894c.34.55.816 1 1.059 1s.441-.45.441-1-.477-1-1.059-1-.781.45-.441 1m-687.957 3.931c-.317.512-.118 1.213.441 1.559.559.345 1.016-.074 1.016-.931 0-1.757-.6-2.015-1.457-.628m7 10c-.665 1.076 1.292 2.567 2.19 1.669.33-.33.049-.6-.625-.6s-.948-.45-.608-1c.34-.55.393-1 .118-1s-.759.419-1.075.931M934 909c0 .55.477 1 1.059 1s.781-.45.441-1-.816-1-1.059-1-.441.45-.441 1m-665.267 5.124c.679.684 1.486.991 1.793.683.308-.308-.247-.867-1.233-1.243-1.425-.542-1.54-.428-.56.56m661.757-.108c-.346.559-.981.799-1.412.532-.431-.266-1.637.162-2.681.952-1.043.79-1.361 1.451-.706 1.468.655.018 1.474-.425 1.819-.984.346-.559.996-.789 1.446-.511.449.278 1.373-.165 2.053-.984.68-.819.982-1.489.672-1.489-.309 0-.846.457-1.191 1.016m-6.985 4.976c-.337.546-.181 1.765.348 2.71.789 1.41.933 1.232.804-.991-.174-3.008-.269-3.149-1.152-1.719M280 924.378c0 .207.788.995 1.75 1.75 1.586 1.243 1.621 1.208.378-.378-1.307-1.666-2.128-2.195-2.128-1.372m12.27 9.553c.08 1.062.482 1.722.894 1.468.412-.255.495-1.124.185-1.931-.781-2.036-1.252-1.834-1.079.463M904 935.059c0 .582.45.781 1 .441s1-.816 1-1.059-.45-.441-1-.441-1 .477-1 1.059m7.458.009c-.363.588-1.275.832-2.027.544-.752-.289-1.676-.025-2.053.586-.397.641-.235.832.382.45.588-.363 1.22-.242 1.405.27.184.512 1.397.065 2.696-.994 1.298-1.058 1.887-1.924 1.309-1.924-.579 0-1.349.481-1.712 1.068m-7.802 6.477c.304.794.956 1.195 1.449.89 1.24-.766 1.126-1.132-.554-1.777-.967-.371-1.265-.076-.895.887M302.5 945c.995 1.1 2.035 2 2.31 2 .275 0-.315-.9-1.31-2-.995-1.1-2.035-2-2.31-2-.275 0 .315.9 1.31 2m597.5-1.028c0 1.356 1.777 2.198 2.425 1.149.31-.501-.109-1.169-.931-1.485-.822-.315-1.494-.164-1.494.336M307 946c0 .55.477 1 1.059 1s.781-.45.441-1-.816-1-1.059-1-.441.45-.441 1m591.564.293c.376.986.935 1.541 1.243 1.233.308-.307.001-1.114-.683-1.793-.988-.98-1.102-.865-.56.56m-582.831 8.831c.679.684 1.486.991 1.793.683.308-.308-.247-.867-1.233-1.243-1.425-.542-1.54-.428-.56.56m572.925.325c-.371.967-.076 1.265.887.895.794-.304 1.195-.956.89-1.449-.766-1.24-1.132-1.126-1.777.554m-563.447.95c.709.77 1.447 1.25 1.639 1.067.593-.564-.91-2.466-1.948-2.466-.54 0-.401.63.309 1.399M320 958c0 .55.45 1 1 1s1-.45 1-1-.45-1-1-1-1 .45-1 1m5.29 2.8c-.86.546-.57 1.168 1 2.145 1.946 1.212 2.062 1.197.969-.126-.683-.827-.946-1.799-.584-2.161.887-.886.107-.807-1.385.142m549.672 5.284c-2.4 2.139-2.582 2.449-.594 1.014 1.577-1.139 3.264-1.825 3.75-1.525.485.3.882-.157.882-1.014 0-2.058-.027-2.047-4.038 1.525m-544.229.04c.679.684 1.486.991 1.793.683.308-.308-.247-.867-1.233-1.243-1.425-.542-1.54-.428-.56.56M868 969c0 .55.477 1 1.059 1s.781-.45.441-1-.816-1-1.059-1-.441.45-.441 1m-6 6.559c0 .857.457 1.276 1.016.931.559-.346.758-1.047.441-1.559-.857-1.387-1.457-1.129-1.457.628m-512.788 1.655c1.495.511 3.385.551 4.211.089 1.006-.563.115-.868-2.712-.928-3.824-.081-3.962-.004-1.499.839m509.295.775c-.35.566.051.734.941.393 1.732-.665 2.049-1.382.611-1.382-.518 0-1.216.445-1.552.989m-503.478.972c-.809.512-1.211 1.191-.893 1.509.319.318 1.148-.108 1.844-.946 1.443-1.738 1.166-1.902-.951-.563M366 987c1.958 1.266 3.282 1.266 2.5 0-.34-.55-1.379-.993-2.309-.985-1.457.014-1.484.15-.191.985m8.029.961c-.809.512-1.258 1.143-.998 1.403.259.26 1.345-.166 2.412-.946 2.133-1.56.94-1.946-1.414-.457m463.843 1.789c-1.269 1.619-1.222 1.64.628.283 1.1-.807 2.188-1.594 2.417-1.75.229-.156-.054-.283-.628-.283s-1.662.788-2.417 1.75M378 992.393c0 .216.698.661 1.552.989.89.341 1.291.173.941-.393-.587-.951-2.493-1.406-2.493-.596M827.5 996c.34.55.816 1 1.059 1s.441-.45.441-1-.477-1-1.059-1-.781.45-.441 1m-8 1c-.34.55.084 1 .941 1s1.559-.45 1.559-1-.423-1-.941-1-1.219.45-1.559 1m-428.687.683c.721.289 1.584.253 1.916-.079.332-.332-.258-.568-1.312-.525-1.165.048-1.402.285-.604.604M824 998c-.825.533-1.05.969-.5.969s1.675-.436 2.5-.969c.825-.533 1.05-.969.5-.969s-1.675.436-2.5.969m-420.187 5.683c.721.289 1.584.253 1.916-.079.332-.332-.258-.568-1.312-.525-1.165.048-1.402.285-.604.604m408 0c.721.289 1.584.253 1.916-.079.332-.332-.258-.568-1.312-.525-1.165.048-1.402.285-.604.604m-399 4c.721.289 1.584.253 1.916-.079.332-.332-.258-.568-1.312-.525-1.165.048-1.402.285-.604.604m8 1c.721.289 1.584.253 1.916-.079.332-.332-.258-.568-1.312-.525-1.165.048-1.402.285-.604.604m127.976 4.058c3.459.196 8.859.195 12-.003s.311-.358-6.289-.356c-6.6.002-9.17.164-5.711.359m101.461.001c3.712.192 9.788.192 13.5 0 3.712-.193.675-.35-6.75-.35s-10.462.157-6.75.35m-219.437.941c.721.289 1.584.253 1.916-.079.332-.332-.258-.568-1.312-.525-1.165.048-1.402.285-.604.604m76.937.023c1.238.238 3.262.238 4.5 0 1.237-.239.225-.434-2.25-.434s-3.488.195-2.25.434m9.519-.013c.973.254 2.323.237 3-.037.677-.274-.119-.481-1.769-.461-1.65.02-2.204.244-1.231.498m174 0c.973.254 2.323.237 3-.037.677-.274-.119-.481-1.769-.461-1.65.02-2.204.244-1.231.498m7.481.013c1.237.238 3.263.238 4.5 0 1.237-.239.225-.434-2.25-.434s-3.487.195-2.25.434m90.063-.023c.721.289 1.584.253 1.916-.079.332-.332-.258-.568-1.312-.525-1.165.048-1.402.285-.604.604m-302.063.979c.688.278 1.813.278 2.5 0 .688-.277.125-.504-1.25-.504s-1.937.227-1.25.504M780 1015c0 .55.477 1 1.059 1s.781-.45.441-1-.816-1-1.059-1-.441.45-.441 1m-337.187 2.683c.721.289 1.584.253 1.916-.079.332-.332-.258-.568-1.312-.525-1.165.048-1.402.285-.604.604m4.456.01c.973.254 2.323.237 3-.037.677-.274-.119-.481-1.769-.461-1.65.02-2.204.244-1.231.498m313 0c.973.254 2.323.237 3-.037.677-.274-.119-.481-1.769-.461-1.65.02-2.204.244-1.231.498m14.544.99c.721.289 1.584.253 1.916-.079.332-.332-.258-.568-1.312-.525-1.165.048-1.402.285-.604.604" fill="undefined" fill-rule="evenodd"/></svg>